<svg width="125" height="84" viewBox="0 0 125 84" fill="none" xmlns="http://www.w3.org/2000/svg">
<path d="M123.411 45.537C121.481 36.0936 116.981 33.6889 109.377 29.912C105.511 34.8512 99.5114 38.0441 92.7667 38.0441C89.1555 38.0441 85.7624 37.122 82.7904 35.5124C83.0734 36.8873 83.2224 38.3105 83.2224 39.7669C83.2224 43.1627 82.3942 46.3611 80.9655 49.2103C86.8944 52.1603 91.8252 54.8355 94.8014 61.1786H115.556C120.492 61.1786 124.396 57.1436 124.228 52.2114C124.231 52.2072 124.117 48.9688 123.411 45.537Z" fill="url(#paint0_linear)"/>
<path d="M43.2731 49.2061C41.8417 46.3611 41.0162 43.1599 41.0162 39.7641C41.0162 38.305 41.1652 36.8831 41.4482 35.5068C38.4762 37.1192 35.0817 38.0413 31.4692 38.0413C24.7231 38.0413 18.7251 34.8484 14.8586 29.9092C7.25522 33.6861 2.75505 36.0921 0.823842 45.5356C0.118447 48.9659 0.00525256 52.2058 0.00525256 52.2058C-0.163159 57.138 3.73929 61.173 8.67705 61.173H29.4455C32.4217 54.841 37.347 52.1547 43.2731 49.2061Z" fill="url(#paint1_linear)"/>
<path d="M78.7223 52.7345C74.8558 57.6736 68.8565 60.8666 62.1117 60.8666C55.3684 60.8666 49.3705 57.6764 45.5039 52.74C37.8923 56.5196 33.388 58.9229 31.4623 68.4106C30.7113 72.1128 30.6244 75.0297 30.6244 75.0297C30.4753 79.9605 34.3915 83.9996 39.3279 83.9996H84.9108C89.8485 83.9996 93.7496 79.9605 93.5826 75.0297C93.5826 75.0297 93.4708 71.8078 92.7681 68.3816C90.8397 58.9174 86.3354 56.5155 78.7223 52.7345Z" fill="url(#paint2_linear)"/>
<path d="M92.7683 33.8807C102.122 33.8807 109.712 26.2966 109.712 16.9388C109.712 7.58228 102.122 -0.00174644 92.7683 -0.000366023C83.4173 -0.000366023 75.8291 7.58366 75.8291 16.9388C75.8305 26.2966 83.4173 33.8807 92.7683 33.8807Z" fill="url(#paint3_linear)"/>
<path d="M31.4661 33.8807C40.8221 33.8807 48.4066 26.2961 48.4066 16.9402C48.4066 7.58416 40.8221 -0.000366211 31.4661 -0.000366211C22.1101 -0.000366211 14.5256 7.58416 14.5256 16.9402C14.5256 26.2961 22.1101 33.8807 31.4661 33.8807Z" fill="url(#paint4_linear)"/>
<path d="M62.1131 56.7061C71.464 56.7061 79.0536 49.1248 79.0536 39.7642C79.0536 30.4091 71.464 22.8223 62.1131 22.8237C52.7593 22.8237 45.1712 30.4091 45.1712 39.7642C45.1712 49.1248 52.7593 56.7061 62.1131 56.7061Z" fill="url(#paint5_linear)"/>
<defs>
<linearGradient id="paint0_linear" x1="85.2922" y1="29.912" x2="110.414" y2="72.595" gradientUnits="userSpaceOnUse">
<stop stop-color="#4019CE"/>
<stop offset="1" stop-color="#96588A"/>
</linearGradient>
<linearGradient id="paint1_linear" x1="4.32732" y1="29.9092" x2="29.4443" y2="72.5932" gradientUnits="userSpaceOnUse">
<stop stop-color="#4019CE"/>
<stop offset="1" stop-color="#96588A"/>
</linearGradient>
<linearGradient id="paint2_linear" x1="36.917" y1="52.7345" x2="56.8904" y2="102.123" gradientUnits="userSpaceOnUse">
<stop stop-color="#4019CE"/>
<stop offset="1" stop-color="#96588A"/>
</linearGradient>
<linearGradient id="paint3_linear" x1="79.2174" y1="-0.000367318" x2="109.71" y2="37.4394" gradientUnits="userSpaceOnUse">
<stop stop-color="#4019CE"/>
<stop offset="1" stop-color="#96588A"/>
</linearGradient>
<linearGradient id="paint4_linear" x1="17.9137" y1="-0.000367318" x2="48.4066" y2="37.4382" gradientUnits="userSpaceOnUse">
<stop stop-color="#4019CE"/>
<stop offset="1" stop-color="#96588A"/>
</linearGradient>
<linearGradient id="paint5_linear" x1="48.5594" y1="22.8237" x2="79.0536" y2="60.2637" gradientUnits="userSpaceOnUse">
<stop stop-color="#4019CE"/>
<stop offset="1" stop-color="#96588A"/>
</linearGradient>
</defs>
</svg>
