<svg width="88" height="88" viewBox="0 0 88 88" fill="none" xmlns="http://www.w3.org/2000/svg">
<path d="M78.841 51.008L70.7625 42.9298L78.8383 34.8537V38.1717H87.9134V16.1466C87.9134 7.22979 80.6843 -0.000366211 71.7665 -0.000366211H16.147C7.22982 -0.000366211 0 7.22979 0 16.1466V38.1717H9.0751V34.855L17.1513 42.9328L9.0751 51.0093V47.6909H0V71.7658C0 80.6836 7.22982 87.9128 16.147 87.9128H22.339C22.339 76.7662 22.3497 68.7024 22.3732 68.5029C23.1998 57.4279 32.4917 48.6701 43.8137 48.6487C55.2367 48.6333 64.8238 57.4909 65.5359 68.7024C65.56 68.9105 65.5721 76.8793 65.5761 87.9128H71.7665C80.6843 87.9128 87.9134 80.6836 87.9134 71.7658V47.6909H78.841V51.008ZM43.9576 45.594C34.7714 45.594 27.3233 38.1453 27.3233 28.9591C27.3233 19.7709 34.7714 12.3242 43.9576 12.3242C53.1444 12.3242 60.5918 19.7709 60.5918 28.9591C60.5918 38.1453 53.1444 45.594 43.9576 45.594Z" fill="url(#paint0_linear)"/>
<path d="M35.8802 76.5767H39.197V87.9997H48.7161V76.5754H52.0339L43.9574 68.4989L35.8802 76.5767Z" fill="url(#paint1_linear)"/>
<defs>
<linearGradient id="paint0_linear" x1="8.79135" y1="-0.000369084" x2="87.9131" y2="97.1439" gradientUnits="userSpaceOnUse">
<stop stop-color="#4019CE"/>
<stop offset="1" stop-color="#96588A"/>
</linearGradient>
<linearGradient id="paint1_linear" x1="37.4956" y1="68.4989" x2="55.4146" y2="86.7232" gradientUnits="userSpaceOnUse">
<stop stop-color="#4019CE"/>
<stop offset="1" stop-color="#96588A"/>
</linearGradient>
</defs>
</svg>
