<svg width="90" height="83" viewBox="0 0 90 83" fill="none" xmlns="http://www.w3.org/2000/svg">
<path d="M25.7057 40.082L42.2903 61.6793C42.9499 62.5281 43.8922 62.9996 45.023 62.9996C46.0596 62.9996 47.0961 62.5281 47.7557 61.6793L64.3404 40.082C64.8115 39.5161 65 38.7616 65 38.0071C65 37.5356 64.9058 36.9697 64.6231 36.4981C64.0577 35.3664 62.8327 34.6119 61.6077 34.6119H54.1634V2.82897C54.1634 1.31999 52.9384 -0.000366211 51.3365 -0.000366211H38.6153C37.1076 -0.000366211 35.7884 1.22568 35.7884 2.82897V34.7062H28.3441C27.0249 34.7062 25.8941 35.4607 25.3287 36.5925C24.7634 37.7242 24.9518 39.1389 25.7057 40.082Z" fill="url(#paint0_linear)"/>
<path d="M85.1684 8.99963H69.4421C66.7895 8.99963 64.6105 11.165 64.6105 13.8012C64.6105 16.4373 66.7895 18.6027 69.4421 18.6027H80.3368V73.3966H9.66316V18.6027H20.5579C23.2105 18.6027 25.3895 16.4373 25.3895 13.8012C25.3895 11.165 23.2105 8.99963 20.5579 8.99963H4.83158C2.17895 8.99963 0 11.165 0 13.8012V78.1981C0 80.8342 2.17895 82.9996 4.83158 82.9996H85.1684C87.8211 82.9996 90 80.8342 90 78.1981V13.8012C90 11.165 87.8211 8.99963 85.1684 8.99963Z" fill="url(#paint1_linear)"/>
<defs>
<linearGradient id="paint0_linear" x1="29" y1="-0.00036827" x2="85.1477" y2="43.7691" gradientUnits="userSpaceOnUse">
<stop stop-color="#4019CE"/>
<stop offset="1" stop-color="#96588A"/>
</linearGradient>
<linearGradient id="paint1_linear" x1="9" y1="8.99963" x2="71.8844" y2="102.901" gradientUnits="userSpaceOnUse">
<stop stop-color="#4019CE"/>
<stop offset="1" stop-color="#96588A"/>
</linearGradient>
</defs>
</svg>
