<svg width="84" height="87" viewBox="0 0 84 87" fill="none" xmlns="http://www.w3.org/2000/svg">
<path d="M82.1164 25.9836C81.3016 24.9877 80.1246 24.3539 78.7666 24.3539H70.0751C71.1615 27.5227 70.6183 31.0536 68.4454 33.7697L58.0337 47.3501C56.1325 49.8851 53.1448 51.3337 49.976 51.3337C46.8073 51.3337 43.9101 49.8851 41.9183 47.3501L31.5066 33.7697C29.4243 31.0536 28.7905 27.5227 29.877 24.3539H22.1814L20.1896 16.2056C19.7369 14.3044 18.0167 13.0369 16.0249 13.0369H4.25521C1.9918 13.0369 0 14.9381 0 17.2921C0 19.646 1.90126 21.5473 4.25521 21.5473H12.6751L14.6669 29.605C14.6669 29.6955 14.7574 29.7861 14.7574 29.8766L23.1773 63.375C23.63 65.2763 25.3502 66.5438 27.342 66.5438H70.6183C72.6101 66.5438 74.2397 65.1858 74.783 63.375L82.9312 29.6955C83.2028 28.3375 82.9312 26.9795 82.1164 25.9836Z" fill="url(#paint0_linear)"/>
<path d="M33.2267 86.0996C37.3769 86.0996 40.7412 82.7353 40.7412 78.5851C40.7412 74.435 37.3769 71.0706 33.2267 71.0706C29.0766 71.0706 25.7122 74.435 25.7122 78.5851C25.7122 82.7353 29.0766 86.0996 33.2267 86.0996Z" fill="url(#paint1_linear)"/>
<path d="M62.7416 86.0996C66.8918 86.0996 70.2561 82.7353 70.2561 78.5851C70.2561 74.435 66.8918 71.0706 62.7416 71.0706C58.5915 71.0706 55.2271 74.435 55.2271 78.5851C55.2271 82.7353 58.5915 86.0996 62.7416 86.0996Z" fill="url(#paint2_linear)"/>
<path d="M47.5316 43.0044C48.7991 44.634 51.1531 44.634 52.4206 43.0044L62.9228 29.4239C64.4619 27.4321 63.0133 24.4444 60.4783 24.4444H55.1367V1.81036C55.1367 0.81446 54.3218 -0.000366211 53.3259 -0.000366211H46.5357C45.5398 -0.000366211 44.725 0.81446 44.725 1.81036V24.4444H39.3833C36.8483 24.4444 35.3997 27.4321 36.9389 29.4239L47.5316 43.0044Z" fill="url(#paint3_linear)"/>
<defs>
<linearGradient id="paint0_linear" x1="8.30331" y1="13.0369" x2="48.7731" y2="90.1435" gradientUnits="userSpaceOnUse">
<stop stop-color="#4019CE"/>
<stop offset="1" stop-color="#96588A"/>
</linearGradient>
<linearGradient id="paint1_linear" x1="27.2151" y1="71.0706" x2="40.7412" y2="87.6777" gradientUnits="userSpaceOnUse">
<stop stop-color="#4019CE"/>
<stop offset="1" stop-color="#96588A"/>
</linearGradient>
<linearGradient id="paint2_linear" x1="56.73" y1="71.0706" x2="70.2561" y2="87.6777" gradientUnits="userSpaceOnUse">
<stop stop-color="#4019CE"/>
<stop offset="1" stop-color="#96588A"/>
</linearGradient>
<linearGradient id="paint3_linear" x1="39.0317" y1="-0.000367656" x2="78.1431" y2="29.5844" gradientUnits="userSpaceOnUse">
<stop stop-color="#4019CE"/>
<stop offset="1" stop-color="#96588A"/>
</linearGradient>
</defs>
</svg>
