<svg width="81" height="81" viewBox="0 0 81 81" fill="none" xmlns="http://www.w3.org/2000/svg">
<path d="M81 20.2502C80.9979 19.8333 80.9154 19.4208 80.757 19.0352C80.7622 18.9408 80.7622 18.8461 80.757 18.7517L72.657 2.55174C72.3544 1.79171 71.8287 1.14116 71.1491 0.685711C70.4696 0.230267 69.668 -0.00871049 68.85 0.00024267H12.15C11.4021 0.00250947 10.6694 0.211829 10.0332 0.605C9.39698 0.99817 8.88206 1.55983 8.5455 2.22774L0.4455 18.4277C0.440328 18.5221 0.440328 18.6168 0.4455 18.7112C0.170502 19.1788 0.0173187 19.708 0 20.2502C0 20.2502 0 20.2502 0 20.2502V76.95C0 78.0241 0.426695 79.0543 1.18622 79.8138C1.94574 80.5733 2.97587 81 4.05 81H76.95C78.0241 81 79.0543 80.5733 79.8138 79.8138C80.5733 79.0543 81 78.0241 81 76.95V20.2502ZM52.65 40.5001H28.35C27.2759 40.5001 26.2457 40.0734 25.4862 39.3139C24.7267 38.5544 24.3 37.5243 24.3 36.4501C24.3 35.376 24.7267 34.3459 25.4862 33.5864C26.2457 32.8268 27.2759 32.4001 28.35 32.4001H52.65C53.7241 32.4001 54.7543 32.8268 55.5138 33.5864C56.2733 34.3459 56.7 35.376 56.7 36.4501C56.7 37.5243 56.2733 38.5544 55.5138 39.3139C54.7543 40.0734 53.7241 40.5001 52.65 40.5001ZM10.611 16.2002L14.661 8.10022H66.339L70.389 16.2002H10.611Z" fill="url(#paint0_linear)"/>
<defs>
<linearGradient id="paint0_linear" x1="8.1" y1="-2.64719e-06" x2="81" y2="89.505" gradientUnits="userSpaceOnUse">
<stop stop-color="#4019CE"/>
<stop offset="1" stop-color="#96588A"/>
</linearGradient>
</defs>
</svg>
